<svg width="50" height="50" viewBox="0 0 50 50" fill="none" xmlns="http://www.w3.org/2000/svg">
<g clip-path="url(#clip0_2_9)">
<path d="M45.24 9.32L29.76 1.16C28.2895 0.396509 26.6569 -0.00205231 25 -0.00205231C23.3431 -0.00205231 21.7105 0.396509 20.24 1.16L4.76 9.32C3.35408 10.0175 2.16668 11.0876 1.3273 12.4137C0.487917 13.7397 0.0287924 15.2709 0 16.84L0 33.16C0.0287924 34.7291 0.487917 36.2603 1.3273 37.5863C2.16668 38.9124 3.35408 39.9825 4.76 40.68L20.24 48.84C21.7105 49.6035 23.3431 50.002 25 50.002C26.6569 50.002 28.2895 49.6035 29.76 48.84L45.24 40.68C46.6459 39.9825 47.8333 38.9124 48.6727 37.5863C49.5121 36.2603 49.9712 34.7291 50 33.16V16.84C49.9712 15.2709 49.5121 13.7397 48.6727 12.4137C47.8333 11.0876 46.6459 10.0175 45.24 9.32ZM42.24 38.44H7.78C4.31 38.44 2.13 35 3.87 32.26L21.09 5C21.5268 4.36678 22.1108 3.84912 22.7919 3.49153C23.473 3.13394 24.2307 2.94711 25 2.94711C25.7693 2.94711 26.527 3.13394 27.2081 3.49153C27.8892 3.84912 28.4732 4.36678 28.91 5L46.13 32.26C47.87 35 45.69 38.44 42.22 38.44H42.24Z" fill="#FEFAFF"/>
</g>
<defs>
<clipPath id="clip0_2_9">
<rect width="50" height="50" fill="white"/>
</clipPath>
</defs>
</svg>
